<svg width="1438" height="1392" viewBox="0 0 1438 1392" fill="none" xmlns="http://www.w3.org/2000/svg">
<g clip-path="url(#clip0)">
<path d="M1101.24 1421.72H1101.05L1097.63 1284.73C1099.84 1279.49 1100.96 1273.65 1100.9 1267.75C1100.83 1261.84 1099.58 1256.05 1097.25 1250.88L1096.76 1249.79L1098.03 1242.57C1099.65 1233.28 1098.91 1223.6 1095.88 1214.86L1092.7 1087.07C1104.09 996.34 1050.69 925.294 1050.69 925.294H965.253L951.014 1010.89L905.426 1225.07C903.405 1228.85 902.147 1233.16 901.758 1237.65C901.369 1242.15 901.86 1246.69 903.189 1250.9L967.933 1408.32L967.433 1408.63C966.486 1409.28 965.779 1410.35 965.458 1411.62C965.137 1412.9 965.228 1414.27 965.711 1415.47C966.557 1418.48 968.701 1420.3 970.498 1419.54L995.736 1403.85C996.683 1403.2 997.39 1402.13 997.711 1400.86C998.032 1399.59 997.942 1398.21 997.459 1397.02C996.613 1394 994.469 1392.18 992.671 1392.94L989.751 1394.76L970.216 1276.42L969.525 1252.28L970.949 1224.89L1012.96 1107.62L1037.87 1259.13L1074.6 1423.24C1073.9 1424.02 1073.4 1425.05 1073.19 1426.18C1072.97 1427.31 1073.03 1428.5 1073.38 1429.58C1073.72 1430.67 1074.32 1431.6 1075.1 1432.26C1075.88 1432.92 1076.81 1433.26 1077.76 1433.26H1101.24C1102.49 1433.26 1103.68 1432.65 1104.56 1431.57C1105.44 1430.49 1105.94 1429.02 1105.94 1427.49C1105.94 1425.96 1105.44 1424.49 1104.56 1423.41C1103.68 1422.32 1102.49 1421.72 1101.24 1421.72Z" fill="#2F2E41"/>
<path d="M1060.24 864.685L1057.96 895.971C1057.96 895.971 1056.97 921.946 1053.85 927.69C1050.75 933.404 966.161 934.126 966.161 934.126C966.161 934.126 960.572 897.096 955.758 864.685H1060.24Z" fill="#FFB6B6"/>
<path d="M1017.88 669.749C1041.88 669.749 1061.34 645.834 1061.34 616.333C1061.34 586.831 1041.88 562.916 1017.88 562.916C993.875 562.916 974.416 586.831 974.416 616.333C974.416 645.834 993.875 669.749 1017.88 669.749Z" fill="#FFB6B6"/>
<path d="M1040.18 679.969L1005.3 685.013C1003.83 685.225 1002.45 685.997 1001.35 687.219C1000.25 688.442 999.493 690.055 999.176 691.833L993.629 723.032L959.047 773.083C959.047 773.083 946.629 801.699 951.286 834.13C955.942 866.562 957.989 890.66 957.989 890.66C957.989 890.66 1050.75 933.407 1053.86 927.684C1056.96 921.961 1057.97 895.964 1057.97 895.964L1070.39 726.176C1070.39 726.176 1056.42 697.56 1048.66 697.56C1043.65 697.352 1044.29 683.497 1040.18 679.969Z" fill="#6C63FF"/>
<path opacity="0.2" d="M1024.78 789.673L1009.26 930.844L992.978 931.886L1024.78 789.673Z" fill="black"/>
<path d="M957.046 901.099C961.938 901.099 965.903 895.251 965.903 888.036C965.903 880.822 961.938 874.973 957.046 874.973C952.154 874.973 948.188 880.822 948.188 888.036C948.188 895.251 952.154 901.099 957.046 901.099Z" fill="#6C63FF"/>
<path d="M1017.73 1062.48C1019.58 1060.23 1021 1057.5 1021.89 1054.49C1022.79 1051.49 1023.14 1048.28 1022.91 1045.09C1022.69 1041.9 1021.9 1038.81 1020.6 1036.04C1019.3 1033.26 1017.52 1030.87 1015.39 1029.04L1044.47 856.081L1013.1 868.244L989.702 1035.57C987.429 1040.17 986.609 1045.64 987.399 1050.95C988.189 1056.25 990.533 1061.01 993.988 1064.32C997.442 1067.64 1001.77 1069.29 1006.14 1068.95C1010.52 1068.61 1014.64 1066.31 1017.73 1062.48V1062.48Z" fill="#FFB6B6"/>
<path d="M1040.86 702.208C1040.86 702.208 1061.76 691.087 1074.45 719.086C1087.14 747.085 1068.83 844.399 1066.26 860.192C1063.69 875.986 1028.44 951.27 1028.44 951.27L993.214 942.611L1017.04 822.41L1040.86 702.208Z" fill="#6C63FF"/>
<path d="M998.109 565.269C1013.18 552.53 1026.45 550.59 1037.35 554.203C1038.77 551.516 1040.75 549.354 1043.09 547.947C1051.59 521.617 1077.46 505.804 1099.67 513.491C1122.02 521.227 1137.44 551.653 1133.23 579.717C1130.63 597.113 1121.72 612.176 1118.14 629.307C1111.2 662.47 1128.12 700.458 1154.59 711.148C1129.53 717.333 1101.94 698.52 1092.95 669.113C1088.58 654.829 1088.32 639.234 1087.77 623.991C1087.21 608.748 1086.21 593.046 1080.59 579.441C1076.82 570.109 1070.57 562.648 1062.86 558.302C1063.55 560.924 1063.72 563.71 1063.37 566.43C1063.01 569.151 1062.13 571.727 1060.8 573.947C1066.67 582.995 1069.87 592.78 1069.87 598.64C1082.08 626.064 1064.62 649.62 1042.31 664.625C1033.41 670.641 1023.13 672.843 1013.1 670.883L1012.17 665.985L1010.9 670.397L1006.68 685.188C1001.81 688.084 996.981 691.258 992.194 694.711C994.013 684.216 995.484 673.74 996.496 663.497C997.898 649.556 993.012 628.802 989.488 616.181C987.303 608.402 986.181 600.232 986.169 592.003V591.643L982.738 605.19L970.245 598.64C972.569 582.256 970.245 563.656 998.109 565.269Z" fill="#2F2E41"/>
</g>
<path d="M942.594 1348.31L982.302 1348.31L992.796 1392L883.032 1370.74L942.594 1348.31Z" fill="#716CB3"/>
<path d="M1058.41 1346.59L1099.06 1346.59L1128.6 1377.32L1016.62 1386.65L1058.41 1346.59Z" fill="#6C63FF"/>
<defs>
<clipPath id="clip0">
<rect width="1438" height="1348.22" fill="white"/>
</clipPath>
</defs>
</svg>
