<svg width="612" height="980" viewBox="0 0 612 980" fill="none" xmlns="http://www.w3.org/2000/svg">
<path d="M255.448 785.848L277.649 774.454L310.979 802.48L225.864 832.569L255.448 785.848Z" fill="#716CB3"/>
<path d="M344.253 795.818L366.865 793.682L399.984 820.259L308.763 833L344.253 795.818Z" fill="#6C63FF"/>
<path d="M366.138 793.795H365.979L363.169 696.444C364.987 692.717 365.91 688.571 365.856 684.374C365.801 680.177 364.77 676.059 362.854 672.388L362.452 671.614L363.495 666.477C364.835 659.877 364.22 652.999 361.735 646.785L359.113 555.973C368.48 491.491 324.571 441 324.571 441H254.318L242.609 501.833L205.122 654.045C203.46 656.728 202.426 659.793 202.106 662.986C201.787 666.179 202.19 669.408 203.283 672.401L256.521 784.274L256.11 784.495C255.332 784.956 254.75 785.718 254.486 786.623C254.222 787.528 254.297 788.506 254.694 789.354C255.39 791.495 257.152 792.792 258.631 792.25L279.383 781.101C280.162 780.64 280.744 779.877 281.008 778.973C281.271 778.068 281.197 777.09 280.8 776.242C280.104 774.1 278.342 772.803 276.863 773.345L274.462 774.636L258.399 690.539L257.831 673.38L259.001 653.914L293.543 570.573L314.033 678.247L344.231 794.879C343.654 795.434 343.249 796.162 343.069 796.967C342.89 797.772 342.944 798.616 343.225 799.387C343.507 800.159 344.001 800.821 344.644 801.288C345.288 801.754 346.049 802.003 346.827 802H366.138C367.162 802 368.145 801.568 368.869 800.798C369.593 800.029 370 798.986 370 797.898C370 796.81 369.593 795.766 368.869 794.997C368.145 794.228 367.162 793.795 366.138 793.795Z" fill="#2F2E41"/>
<path d="M333 398L331.125 420.076C331.125 420.076 330.313 438.406 327.742 442.458C325.191 446.491 255.563 447 255.563 447C255.563 447 250.963 420.871 247 398H333Z" fill="#FFB6B6"/>
<path d="M297.5 258C317.106 258 333 241.211 333 220.5C333 199.789 317.106 183 297.5 183C277.894 183 262 199.789 262 220.5C262 241.211 277.894 258 297.5 258Z" fill="#FFB6B6"/>
<path d="M316.11 265L287.367 268.617C286.155 268.769 285.017 269.322 284.113 270.199C283.209 271.076 282.583 272.232 282.322 273.507L277.751 295.878L249.256 331.767C249.256 331.767 239.024 352.285 242.861 375.54C246.698 398.795 248.384 416.074 248.384 416.074C248.384 416.074 324.821 446.726 327.38 442.622C329.938 438.518 330.768 419.878 330.768 419.878L341 298.132C341 298.132 329.489 277.613 323.094 277.613C318.966 277.464 319.496 267.53 316.11 265Z" fill="#6C63FF"/>
<path opacity="0.2" d="M304 343L291.311 444.253L278 445L304 343Z" fill="black"/>
<path d="M247.5 424C251.642 424 255 419.747 255 414.5C255 409.253 251.642 405 247.5 405C243.358 405 240 409.253 240 414.5C240 419.747 243.358 424 247.5 424Z" fill="#6C63FF"/>
<path d="M297.092 538.353C298.604 536.742 299.769 534.795 300.502 532.649C301.236 530.504 301.522 528.212 301.339 525.935C301.157 523.659 300.51 521.453 299.445 519.473C298.38 517.493 296.923 515.787 295.175 514.475L319 391L293.296 399.684L274.128 519.136C272.265 522.425 271.593 526.332 272.24 530.116C272.887 533.9 274.808 537.299 277.639 539.668C280.469 542.036 284.013 543.211 287.598 542.969C291.184 542.727 294.562 541.084 297.092 538.353Z" fill="#FFB6B6"/>
<path d="M280.976 184.264C293.402 175.191 304.345 173.809 313.334 176.383C314.5 174.469 316.134 172.929 318.061 171.927C325.072 153.174 346.407 141.912 364.717 147.387C383.145 152.897 395.859 174.566 392.392 194.554C390.243 206.944 382.898 217.672 379.944 229.873C374.225 253.493 388.176 280.549 410 288.162C389.337 292.567 366.591 279.168 359.178 258.223C355.577 248.05 355.36 236.943 354.902 226.087C354.445 215.23 353.621 204.048 348.986 194.358C345.88 187.712 340.72 182.397 334.368 179.302C334.937 181.17 335.079 183.154 334.783 185.091C334.487 187.029 333.761 188.864 332.666 190.444C337.512 196.889 340.149 203.858 340.149 208.032C350.216 227.564 335.821 244.341 317.421 255.027C310.083 259.312 301.609 260.88 293.337 259.484L292.568 255.996L291.525 259.138L288.043 269.673C284.027 271.735 280.045 273.996 276.099 276.455C277.598 268.98 278.811 261.519 279.646 254.224C280.801 244.295 276.773 229.513 273.867 220.524C272.065 214.984 271.141 209.166 271.131 203.305V203.048L268.301 212.696L258 208.031C259.916 196.362 258 183.115 280.976 184.264Z" fill="#2F2E41"/>
</svg>
